<?xml version="1.0" encoding="UTF-8"?>
<svg id="Layer_2" data-name="Layer 2" xmlns="http://www.w3.org/2000/svg" viewBox="0 0 1200 449.33">
  <defs>
    <style>
      .cls-1 {
        fill: none;
      }

      .cls-2 {
        fill: #015c45;
      }
    </style>
  </defs>
  <g id="Layer_1-2" data-name="Layer 1">
    <g>
      <rect class="cls-1" x="0" y="0" width="1200" height="449.33" rx="12" ry="12"/>
      <g>
        <g>
          <path class="cls-2" d="M362.52,102.64c-8.81-1.24-18.92,11.16-27.66,33.43-10.08,25.77-20.28,51.58-31.06,76.59l-.1.23-6.05,14.22v.02s-.21.47-.21.47c-4.48,10.57-19.29,45.42-24.04,56.6-3.17,7.46-6.57,14.66-10.2,21.55,0,.01-.02.03-.02.05h0s-.04.09-.06.12c-2.52,4.77-5.27,9.2-8.29,13.1-20.65,26.72-48.35,33.83-68.57,34.96-30.42.51-70.79-11.83-87.62-57.28-7.98-20.65-9.93-45.6-9.3-69.59l140.11.02-5.65,12.96-1.16,2.65-11.79.32c-10.24.28-20.19.14-30.57.62-9.17.43-17.83-.3-25,7.86-2.85,3.24-4.75,7.19-5.73,11.39-1.36,5.8-.57,10.15,2.27,17.17,5.86,13.04,17.85,20.83,32.1,20.83.43,0,.87,0,1.3-.02,8.06-.27,16.49-3.08,23.42-8.27,6.12-4.57,10.73-11.65,14.32-19.48l8.99-22.54,57.32-135.21v-.04s.02,0,.02,0c1.47-3.69,2.93-7.4,4.39-11.11.02-.05.04-.09.05-.12,2.64-6.41,5.58-6.44,5.63-6.44,0,0,9.45-2.37,29.58-2.37,18.04,0,30.53,1.63,31.06,1.98.52.36,2.56.62,2.52,5.35Z"/>
          <path class="cls-2" d="M404.03,227.12h-.12l-7.55-23.92-.07-.21-7.92-25.12v-.02s-14.79-46.86-14.79-46.86c-2.79-8.3-5.17-16.92-12-15.47-11.96,2.62-18.88,22.61-24.64,38.33-1.37,3.74-2.8,7.81-3.59,12.2l1.81,2.23,47.8,58.84.52.64h-65.08l-9.16-.06-.1.21-5.44,12.47-1.17,2.69h106.59l-5.11-15.95ZM388.24,238.18v-.03l.06.03h-.06Z"/>
        </g>
        <g>
          <path class="cls-2" d="M963.59,191.41c-6.18,0-10.74-1.61-13.69-4.84-2.95-3.22-4.43-7.31-4.43-12.25s1.47-9.23,4.43-12.46c2.95-3.22,7.52-4.84,13.69-4.84s10.74,1.62,13.69,4.84c2.95,3.23,4.43,7.38,4.43,12.46s-1.48,9.03-4.43,12.25c-2.95,3.23-7.52,4.84-13.69,4.84Z"/>
          <g>
            <path class="cls-2" d="M682.62,206.74c-8.31-5.42-18.5-8.13-30.58-8.13-9.2,0-17.4,1.62-24.6,4.84-7.21,3.23-13.25,7.59-18.12,13.07-4.87,5.49-8.58,11.7-11.12,18.63-2.54,6.93-3.81,14.18-3.81,21.72v4.12c0,7.28,1.27,14.38,3.81,21.31,2.54,6.93,6.28,13.21,11.22,18.84,4.94,5.63,11.08,10.09,18.43,13.38,7.34,3.3,15.82,4.94,25.43,4.94s17.84-1.68,25.12-5.04c7.27-3.36,13.31-7.99,18.12-13.9,4.8-5.9,8.03-12.63,9.68-20.18h-30.27c-1.37,3.43-3.98,6.32-7.82,8.65-3.84,2.34-8.79,3.5-14.82,3.5-6.59,0-11.94-1.37-16.06-4.12-4.12-2.74-7.14-6.62-9.06-11.63-1.07-2.78-1.83-5.85-2.3-9.16h82.4v-11.12c0-10.3-2.2-19.8-6.59-28.52-4.39-8.71-10.74-15.78-19.05-21.21ZM628.36,240.72c2.06-5.01,5.08-8.78,9.06-11.32,3.98-2.54,8.85-3.81,14.62-3.81s10.33,1.27,14.1,3.81c3.77,2.54,6.59,6.18,8.44,10.91.99,2.54,1.71,5.39,2.17,8.54h-50.67c.51-2.98,1.27-5.69,2.27-8.13Z"/>
            <path class="cls-2" d="M791.64,199.02h-1.44c-8.65,0-15.99,1.92-22.03,5.77-6.04,3.84-10.54,9.61-13.49,17.3-1.05,2.73-1.9,5.71-2.57,8.91v-28.47h-26.35v112.83h33.15v-65.68c0-6.31,1.89-11.39,5.66-15.24,3.77-3.84,8.75-5.76,14.93-5.76s10.81,1.89,14.31,5.66c3.5,3.78,5.25,8.68,5.25,14.72v66.3h33.15v-64.45c0-17.43-3.47-30.44-10.4-39.02-6.93-8.58-16.99-12.87-30.16-12.87Z"/>
            <path class="cls-2" d="M890.26,172.05h-30.68l-.06,30.47h-17.23v24.3h17.18l-.09,44.47c0,11.4,1.65,20.42,4.94,27.08,3.29,6.66,8.44,11.43,15.44,14.31,7,2.88,16.2,4.32,27.59,4.32h15.85v-28h-16.68c-5.22,0-9.23-1.41-12.05-4.22-2.81-2.81-4.22-6.9-4.22-12.25v-45.71h32.94v-24.3h-32.94v-30.47Z"/>
            <polygon class="cls-2" points="983.77 202.52 950.62 202.52 950.62 202.53 943.55 202.53 935.74 226.92 950.62 226.92 950.62 315.35 983.77 315.35 983.77 227.02 983.77 227.02 983.77 202.53 983.77 202.53 983.77 202.52"/>
            <path class="cls-2" d="M1078.65,272.32c-.55,3.71-1.72,6.97-3.5,9.78-1.79,2.81-4.22,5.01-7.31,6.59-3.09,1.58-6.83,2.37-11.22,2.37-5.9,0-10.67-1.34-14.31-4.01-3.64-2.68-6.28-6.45-7.93-11.32-1.65-4.87-2.47-10.33-2.47-16.37,0-6.45.89-12.11,2.68-16.99,1.78-4.87,4.49-8.68,8.13-11.43,3.64-2.74,8.2-4.12,13.69-4.12,6.45,0,11.46,1.75,15.03,5.25,3.57,3.5,5.63,7.86,6.18,13.07h32.33c-.55-9.19-3.16-17.3-7.82-24.29-4.67-7-10.91-12.46-18.74-16.37-7.82-3.91-16.82-5.87-26.97-5.87-9.34,0-17.6,1.58-24.81,4.74-7.21,3.16-13.25,7.48-18.12,12.97-4.87,5.49-8.54,11.77-11.02,18.84-2.47,7.07-3.71,14.45-3.71,22.13v3.91c0,7.41,1.2,14.59,3.6,21.52,2.4,6.93,6,13.15,10.81,18.63,4.8,5.49,10.77,9.88,17.91,13.18,7.14,3.3,15.65,4.94,25.53,4.94s19.22-1.99,27.18-5.97c7.96-3.98,14.34-9.5,19.15-16.57,4.8-7.07,7.41-15.27,7.82-24.61h-32.12Z"/>
            <path class="cls-2" d="M508.66,162.67l-9.78,30.57h43.79l.68.5c1.22.89,1.65,1.73,1.66,3.21.02,9.46-.11,19.05-.23,27.52-.16,11.7-.35,24.96-.12,37.64v.32c-1.63,17.53-16.76,26.99-30.18,26.99-10.75,0-19.8-5.87-24.22-15.72-4.75-10.59-1.31-19.96,2.22-26.94l1.52-3.01h-33.03l-.52,1.31c-5.21,13.08-5.08,27.64.38,41,5.91,14.5,17.58,25.95,32.03,31.42,7.01,2.65,14.28,4,21.61,4,15.8,0,31.11-6.19,43.1-17.43,12.11-11.35,19.41-26.61,20.57-42.98v-.07s-.03-98.32-.03-98.32h-69.45Z"/>
          </g>
        </g>
      </g>
    </g>
  </g>
</svg>