<svg width="672" height="66" viewBox="0 0 672 66" fill="none" xmlns="http://www.w3.org/2000/svg">
<path d="M17.7171 65.0194H0L24.7013 0.793823H40.693L17.7171 65.0194Z" fill="#4E93D8"/>
<path d="M70.0649 0.793823H86.76V65.0194H70.0649V0.793823Z" fill="#4E93D8"/>
<path d="M142.653 65.18H125.958L142.653 0.954468V65.18Z" fill="#2678BE"/>
<path d="M124.216 65.0194V0.793823H140.911L124.216 65.0194Z" fill="#4E93D8"/>
<path d="M66.887 65.189L42.738 0.963501L34.7216 23.8061L37.2758 31.1215H32.1723L27.686 43.9273H41.7466L49.1699 65.189H66.887Z" fill="#2678BE"/>
<path d="M97.1707 0.802368H88.6948V14.2606H91.123C97.5963 14.2606 103.133 14.3459 103.133 22.438C103.133 30.2747 97.1704 30.2747 91.123 30.2747H88.6948V43.733H97.7668C112.332 43.733 120.509 37.0891 120.509 21.9272C120.509 7.19148 110.969 0.802368 97.1704 0.802368H97.1707Z" fill="#2678BE"/>
<g opacity="0.8">
<path d="M205.849 14.2695C201.569 10.4645 195.702 8.4034 190.074 8.4034C176.677 8.4034 166.451 19.5803 166.451 32.8193C166.451 45.8987 176.598 57.0766 189.916 57.0766C195.782 57.0766 201.411 54.8569 205.85 50.8932V59.6931C201.252 62.3871 195.386 63.894 190.154 63.894C173.11 63.894 159 50.338 159 33.0576C159 15.3794 173.19 1.58606 190.788 1.58606C196.02 1.58606 201.332 2.85427 205.85 5.62834V14.2695H205.849Z" fill="#4E93D8"/>
<path d="M275.29 32.7407C275.29 50.4976 261.258 63.894 243.977 63.894C226.696 63.894 212.665 50.4976 212.665 32.7407C212.665 15.618 226.854 1.58606 243.977 1.58606C261.1 1.58606 275.29 15.6177 275.29 32.7407ZM267.838 32.7407C267.838 19.5803 258.008 8.56205 243.977 8.56205C229.946 8.56205 220.116 19.5803 220.116 32.7407C220.116 46.3753 231.056 56.918 243.977 56.918C256.899 56.918 267.838 46.3753 267.838 32.7407Z" fill="#4E93D8"/>
<path d="M283.931 0L328.799 47.0091V2.85372H336.25V65.083L291.382 18.0739V62.6252H283.931V0Z" fill="#4E93D8"/>
<path d="M356.384 9.67122V26.4769H377.153V33.2942H356.384V62.6251H348.932V2.85388H377.867V9.67122H356.384Z" fill="#4E93D8"/>
<path d="M388.727 2.85388H420.832V9.67122H396.178V26.3982H420.118V33.2146H396.178V55.8077H420.832V62.6251H388.727V2.85388Z" fill="#4E93D8"/>
<path d="M469.345 62.6254H460.308L442.71 37.3369H439.618V62.6254H432.167V2.85388H441.203C446.515 2.85388 452.223 2.93386 456.979 5.62795C461.974 8.56166 464.828 14.1894 464.828 19.8969C464.828 28.4584 459.12 35.594 450.479 36.6239L469.346 62.6251L469.345 62.6254ZM439.618 31.1548H441.997C449.607 31.1548 457.852 29.7266 457.852 20.2142C457.852 10.8611 448.973 9.5129 441.6 9.5129H439.618V31.1548Z" fill="#4E93D8"/>
<path d="M477.351 2.85388H509.456V9.67122H484.802V26.3982H508.743V33.2146H484.802V55.8077H509.456V62.6251H477.351V2.85388Z" fill="#4E93D8"/>
<path d="M520.078 0L564.945 47.0091V2.85372H572.398V65.083L527.528 18.0739V62.6252H520.078V0Z" fill="#4E93D8"/>
<path d="M628.68 14.2695C624.398 10.4645 618.533 8.4034 612.904 8.4034C599.508 8.4034 589.281 19.5803 589.281 32.8193C589.281 45.8987 599.428 57.0766 612.746 57.0766C618.612 57.0766 624.241 54.8569 628.681 50.8932V59.6931C624.082 62.3871 618.217 63.894 612.983 63.894C595.94 63.894 581.83 50.338 581.83 33.0576C581.83 15.3794 596.02 1.58606 613.618 1.58606C618.851 1.58606 624.161 2.85427 628.681 5.62834V14.2695H628.68Z" fill="#4E93D8"/>
<path d="M639.697 2.85388H671.802V9.67122H647.149V26.3982H671.089V33.2146H647.149V55.8077H671.802V62.6251H639.697V2.85388Z" fill="#4E93D8"/>
</g>
</svg>