<?xml version="1.0" encoding="UTF-8"?>
<!DOCTYPE svg PUBLIC "-//W3C//DTD SVG 1.1//EN" "http://www.w3.org/Graphics/SVG/1.1/DTD/svg11.dtd">
<!-- Creator: CorelDRAW 2017 -->
<svg xmlns="http://www.w3.org/2000/svg" xml:space="preserve" width="1830px" height="287px" version="1.1" style="shape-rendering:geometricPrecision; text-rendering:geometricPrecision; image-rendering:optimizeQuality; fill-rule:evenodd; clip-rule:evenodd" viewBox="0 0 18300 2866.3" xmlns:xlink="http://www.w3.org/1999/xlink">
 <defs>
  <style type="text/css">
   <![CDATA[
    .fil0 {fill:#000000}
   ]]>
  </style>
 </defs>
 <g id="Ebene_x0020_1">
  <metadata id="CorelCorpID_0Corel-Layer"/>
  <path class="fil0" d="M17801.8 0c302.7,353.6 498.2,828.2 498.2,1426.9 0,590.5 -188.2,1064.4 -481.2,1419l-17 20.4 -353.2 0c302.7,-381.6 501.4,-881 501.4,-1439.4 0,-535.2 -191,-1031.7 -483.7,-1404.7l-17.7 -22.2 353.2 0zm-910.3 0c-302.8,378.5 -501.4,881 -501.4,1439.3 0,535.3 190.9,1031.8 483.7,1404.7l17.7 22.3 -353.2 0c-302.7,-353.7 -498.2,-828.3 -498.2,-1427 0,-593.4 188.2,-1064.5 481.2,-1419l17 -20.3 353.2 0zm-2168.6 829c429,0 710.8,221.2 710.8,654.2l0 0 0 341.3 -970.6 0 0 88.5c0,139 87.6,227.5 256.7,227.5 172.2,0 231.7,-75.8 256.8,-173.8l0 0 454 0c-40.7,382.4 -303.7,568.8 -710.8,568.8 -422.7,0 -710.8,-218 -710.8,-654.1l0 0 0 -398.2c0,-433 281.8,-654.2 713.9,-654.2zm-12380.8 31.6c394.6,0 657.6,205.4 657.6,603.6l0 0 0 303.4 -1077.1 0 0 173.8c0,237 150.3,382.4 422.7,382.4 263,0 397.6,-132.7 410.2,-319.2l0 0 241.1 0c-18.8,338.2 -259.9,530.9 -651.3,530.9 -407.1,0 -663.8,-214.9 -663.8,-609.9l0 0 0 -461.4c0,-398.2 259.9,-603.6 660.6,-603.6zm4089.4 0c394.5,0 657.6,205.4 657.6,603.6l0 0 0 303.4 -1077.2 0 0 173.8c0,237 150.3,382.4 422.7,382.4 263.1,0 397.7,-132.7 410.2,-319.2l0 0 241.1 0c-18.8,338.2 -259.9,530.9 -651.3,530.9 -407,0 -663.8,-214.9 -663.8,-609.9l0 0 0 -461.4c0,-398.2 259.9,-603.6 660.7,-603.6zm2980.9 -600.4c526.1,0 870.5,271.8 870.5,802.7l0 0 0 18.9 -485.3 0 0 -18.9c0,-249.7 -153.5,-376.1 -385.2,-376.1 -238,0 -391.4,126.4 -391.4,376.1l0 0 0 669.9c0,249.7 153.4,376.1 385.2,376.1 237.9,0 391.4,-126.4 391.4,-376.1l0 0 0 -18.9 485.3 0 0 18.9c0,531 -344.4,802.7 -876.7,802.7 -526.1,0 -870.5,-271.7 -870.5,-802.7l0 0 0 -669.9c0,-530.9 344.4,-802.7 876.7,-802.7zm1850.6 568.8c428.9,0 710.7,221.2 710.7,654.2l0 0 0 398.2c0,432.9 -281.8,654.1 -713.9,654.1 -428.9,0 -710.7,-221.2 -710.7,-654.1l0 0 0 -398.2c0,-433 281.8,-654.2 713.9,-654.2zm2417.3 -663.6l0 2338.5 -344.5 0 -65.7 -158c-100.2,126.4 -253.7,189.6 -438.4,189.6 -350.7,0 -576.1,-221.2 -576.1,-654.1l0 0 0 -398.2c0,-433 225.4,-654.2 573,-654.2 162.8,0 297.4,47.4 397.6,142.2l0 0 0 -805.8 454.1 0zm-13436.1 0l0 897.5c106.5,-132.8 272.4,-202.3 476,-202.3 366.3,0 598,211.8 598,603.6l0 0 0 464.6c0,391.8 -231.7,606.7 -598,606.7 -219.2,0 -394.6,-75.8 -501,-221.2l0 0 -31.3 189.6 -187.9 0 0 -2247.4 244.2 -91.1zm3491.3 116.9l0 609.9 491.6 0 0 211.8 -491.6 0 0.1 846.9c2.6,312.8 85,403.6 491.5,350.8l0 0 0 202.2c-632.5,107.5 -735.8,-139 -735.8,-590.9l0 0 0 -809 -313.1 0 0 -211.8 313.1 0 0 -537.2 244.2 -72.7zm1236.9 0l0 609.9 491.6 0 0 211.8 -491.6 0 0 846.9c2.6,312.8 85,403.6 491.6,350.8l0 0 0 202.2c-632.5,107.5 -735.9,-139 -735.9,-590.9l0 -809 -313.1 0 0 -211.8 313.1 0 0 -537.2 244.3 -72.7zm2736.6 812.2c140.9,-189.6 397.7,-268.6 638.8,-211.8l0 0 0 221.3c-375.7,-69.6 -616.8,85.3 -616.8,344.4l0 0 0 1055.5 -244.3 0 0 -1611.7 187.9 0 34.4 202.3zm-7038.9 -22.1c-259.9,0 -425.9,142.2 -425.9,391.8l0 0 0 464.6c0,252.8 166,395 422.7,395 253.7,0 410.2,-135.9 410.2,-379.2l0 0 0 -496.2c0,-243.3 -156.5,-376 -407,-376zm10592.9 151.6c-156.6,0 -259.9,72.7 -259.9,227.6l0 0 0 461.4c0,154.8 103.3,227.5 256.7,227.5 159.7,0 259.9,-72.7 259.9,-227.5l0 0 0 -461.4c0,-154.9 -100.2,-227.6 -256.7,-227.6zm1703.3 0c-156.5,0 -256.7,72.7 -256.7,227.6l0 0 0 461.4c0,154.8 100.2,227.5 259.9,227.5 153.4,0 256.7,-72.7 256.7,-227.5l0 0 0 -461.4c0,-154.9 -103.3,-227.6 -259.9,-227.6zm-10624.2 -151.6c-253.6,0 -419.5,126.4 -419.5,376l0 0 0 123.3 832.9 0 0 -123.3c0,-249.6 -162.9,-376 -413.4,-376zm4089.4 0c-253.6,0 -419.6,126.4 -419.6,376l0 0 0 123.3 832.9 0 0 -123.3c0,-249.6 -162.8,-376 -413.3,-376zm8291.4 151.6c-156.5,0 -259.8,72.7 -259.8,227.6l0 0 0 41.1 516.6 0 0 -41.1c0,-154.9 -100.2,-227.6 -256.8,-227.6z"/>
 </g>
</svg>