<svg width="743.36707" height="368.43945" xmlns="http://www.w3.org/2000/svg" version="1.0">
 <g>
  <title>Layer 1</title>
  <path d="m0.00001,367.88668l375.32034,0l368.04674,-367.88667l-743.36708,0l0,367.88667" id="path25030" fill-rule="nonzero" fill="#014185"/>
  <path d="m286.62419,69.14332l-72.7365,-0.01454l0,174.0148l-64.00812,-174.0148l-62.55339,0l-85.82907,227.49067l66.91758,0l10.18311,-33.86611c11.63784,3.89868 24.73041,6.16805 39.27771,6.16805c14.5473,0 26.18514,-2.19664 37.82298,-5.89165l11.63784,33.58971l107.65002,0l0,-70.24891l24.73041,0c56.73447,0 90.19326,-29.10915 90.19326,-77.92988c0,-54.34872 -32.00406,-79.29734 -103.28583,-79.29734zm-168.74868,148.9789c-8.72838,0 -16.00203,-1.51292 -23.27568,-4.16052l23.27568,-73.20202l0,0l23.27568,73.43477c-7.27365,2.50214 -14.5473,3.92777 -23.27568,3.92777zm173.11287,-42.09988l-16.00203,0l0,-59.0184l16.00203,0c21.82095,0 39.27771,7.14272 39.27771,29.21098c0,22.69379 -17.45676,29.80742 -39.27771,29.80742" id="path25032" fill-rule="evenodd" fill="white"/>
  <path d="m388.64777,69.12973l-0.07946,227.49353l61.17812,-0.00286l0,-227.5989l-61.09866,0.10823zm61.09866,106.89356l0,-59.0184" id="svg_3" fill-rule="evenodd" fill="white"/>
 </g>

</svg>