<svg xmlns="http://www.w3.org/2000/svg" width="639" height="200" viewBox="0 0 639 200" fill="currentColor" class="h-8 w-auto text-foreground"><defs><clipPath id="clip0_6_36_static"><rect width="200" height="200" fill="currentColor"></rect></clipPath></defs><g clip-path="url(#clip0_6_36_static)"><path d="M155.388 121.889C155.909 122.446 156.414 123.002 156.901 123.559C159.51 126.533 160.292 130.499 159.197 134.777C157.631 140.308 158.414 145.787 161.493 149.126C165.823 153.927 173.65 151.892 179.129 145.213C184.19 138.43 185.86 128.933 182.52 123.559C180.068 119.854 175.894 118.758 171.615 120.219C168.171 121.315 164.832 120.324 162.275 117.402C161.788 116.81 161.301 116.236 160.814 115.68C158.101 112.601 157.057 108.27 157.944 103.783C159.04 97.887 157.475 91.4169 153.248 86.7208C146.309 79.1027 134.881 78.7897 127.681 86.1468C122.985 90.9472 121.263 97.7304 122.515 103.94C123.454 108.688 122.098 113.28 118.654 116.723C118.028 117.35 117.384 117.993 116.723 118.654C113.28 122.098 108.688 123.454 103.94 122.515C97.6261 121.263 90.8429 122.985 86.0946 127.681C81.3986 132.273 79.8332 138.586 81.2421 144.378C82.2856 148.657 81.1899 152.57 78.0592 155.335C77.5026 155.857 76.946 156.362 76.3895 156.849C73.4153 159.458 69.4497 160.24 65.1711 159.144C59.6402 157.579 54.1614 158.362 50.822 161.44C46.0216 165.771 48.0566 173.598 54.7876 179.129C61.5186 184.138 71.0151 185.808 76.3373 182.52C80.042 180.068 81.2421 175.946 79.6767 171.615C78.581 168.171 79.5723 164.78 82.4943 162.275C83.0509 161.788 83.6249 161.301 84.2162 160.814C87.3469 158.153 91.6256 157.11 96.1651 157.944C102.061 158.988 108.531 157.475 113.28 153.248C118.028 148.865 119.906 142.813 118.863 137.021C117.976 132.533 119.384 128.15 122.88 124.759C123.507 124.133 124.133 123.507 124.759 122.88C128.15 119.437 132.533 118.028 137.021 118.863C139.421 119.332 141.926 119.228 144.326 118.706C148.604 117.61 152.518 118.758 155.283 121.837L155.388 121.889ZM174.902 159.562C177.407 157.683 179.233 157.892 179.129 159.875C178.92 161.701 176.885 164.623 174.694 166.502C172.346 168.328 170.467 168.38 170.415 166.606C170.363 164.571 172.398 161.388 174.902 159.614V159.562ZM89.5906 9.07926C95.2781 12.21 104.931 12.21 110.566 9.07926C115.784 6.62687 114.949 2.97438 109.314 0.991601C104.096 -0.365039 96.0607 -0.365039 90.7385 0.991601C85.1033 3.02656 84.3206 6.62687 89.5906 9.07926ZM90.7385 199.009C96.0607 200.365 104.096 200.365 109.314 199.009C114.949 196.974 115.836 193.374 110.566 190.921C104.879 187.79 95.2259 187.79 89.5906 190.921C84.3728 193.374 85.1554 196.974 90.7907 199.009H90.7385ZM164.675 73.624C158.571 66.7364 157.631 56.7704 162.275 51.7091C166.293 47.1695 173.598 49.048 178.764 55.2572C183.564 61.623 185.077 70.5455 181.946 75.5546C178.19 81.0333 170.363 80.355 164.675 73.5718V73.624ZM136.76 178.19C131.751 174.589 132.847 166.554 139.525 160.553C146.256 154.24 155.544 153.04 159.927 157.475C163.736 161.336 161.597 168.641 155.544 174.12C149.439 179.181 141.195 181.112 136.708 178.19H136.76ZM190.921 110.514C193.374 115.732 196.974 114.845 199.009 109.262C200.365 103.94 200.365 96.1129 199.009 90.7907C196.974 85.1554 193.374 84.3728 190.921 89.5384C187.79 95.2259 187.79 104.879 190.921 110.514ZM21.2368 144.743C26.4025 151.057 33.7075 152.883 37.7774 148.344C42.4213 143.282 41.4299 133.264 35.325 126.376C29.6376 119.593 21.8108 118.915 18.054 124.498C14.9232 129.559 16.4364 138.377 21.2368 144.743ZM0.991601 109.418C3.02656 114.949 6.62687 115.836 9.07926 110.566C12.21 104.879 12.21 95.1215 9.07926 89.4862C6.62687 84.2684 3.02656 85.1033 0.991601 90.7385C-0.365039 95.9564 -0.365039 104.096 0.991601 109.418ZM51.7612 37.7252C56.8225 42.3691 66.8408 41.3777 73.624 35.325C80.4072 29.6376 81.0855 21.8108 75.6068 18.054C70.5455 14.9232 61.6751 16.4364 55.3615 21.1847C49.048 26.3503 47.2217 33.6553 51.7091 37.7252H51.7612ZM92.8257 106.183C88.8601 102.218 88.8601 95.7998 92.8257 91.8343C96.7912 87.8687 103.209 87.8687 107.175 91.8343C111.14 95.7998 111.14 102.218 107.175 106.183C103.209 110.149 96.7912 110.149 92.8257 106.183ZM56.2486 134.621C58.8575 131.96 63.397 132.168 66.3712 135.142C69.3976 138.117 69.6063 142.656 66.9452 145.213C64.3362 147.717 59.9011 147.404 56.9791 144.535C54.1093 141.665 53.744 137.23 56.3008 134.621H56.2486ZM137.073 57.9705C134.412 60.5794 134.621 65.1189 137.595 68.1453C140.517 71.1194 145.004 71.3282 147.561 68.667C150.065 66.0581 149.7 61.623 146.883 58.6488C144.013 55.779 139.63 55.4137 137.073 57.9705ZM135.403 133.577C138.377 130.551 142.865 130.342 145.422 133.055C147.926 135.664 147.613 140.099 144.743 143.021C141.873 145.891 137.438 146.204 134.829 143.7C132.168 141.091 132.377 136.551 135.403 133.577ZM56.7182 54.5789C53.8484 57.4487 53.4831 61.8839 55.9877 64.4406C58.5444 67.1017 63.084 66.893 66.0581 63.9188C69.0323 60.9968 69.241 56.4573 66.6321 53.9005C64.0232 51.4482 59.588 51.7612 56.7182 54.5789ZM94.5476 21.3934C91.7821 23.4283 91.6256 26.8199 94.3388 28.9071C97.1565 31.0986 101.696 31.0986 104.461 28.9071C107.227 26.7678 107.123 23.4283 104.409 21.3412C101.696 19.4106 97.2608 19.4106 94.5476 21.3412V21.3934ZM104.305 166.763C108.479 163.267 115.21 163.058 119.019 166.293C122.776 169.319 122.306 174.328 118.184 177.511C114.167 180.485 107.905 180.746 104.096 178.085C100.183 175.163 100.183 170.154 104.305 166.815V166.763ZM173.911 91.4169C175.894 88.7036 179.129 88.8601 181.112 91.6256C182.99 94.3388 183.042 98.6697 181.216 101.279C179.285 103.94 176.102 103.992 174.015 101.279C171.876 98.5131 171.824 94.0258 173.911 91.3125V91.4169ZM20.9759 98.2C19.0453 101.018 19.1497 105.401 21.0803 108.114C23.1153 110.879 26.5069 111.088 28.5418 108.375C30.7333 105.662 30.6811 101.07 28.4375 98.2C26.2981 95.4346 22.9587 95.5389 20.9238 98.2H20.9759ZM10.1228 60.4229C9.75758 59.0662 8.45312 60.0054 7.14866 62.51C5.94855 65.0667 5.00934 68.2496 5.16588 69.7628C5.47895 71.3282 6.83559 70.5977 8.29658 67.9887C9.80976 65.432 10.6446 61.936 10.1228 60.4229ZM35.2728 26.0894C34.2815 25.2546 31.5682 26.4547 29.2723 28.7505C27.0286 31.0464 25.8285 33.6553 26.7156 34.6989C27.707 35.8468 30.5246 34.8554 32.9248 32.403C35.4294 29.9506 36.4208 27.133 35.325 26.1416L35.2728 26.0894ZM70.4933 6.57469C68.9801 6.41816 65.9016 7.30519 63.3449 8.5053C60.8403 9.80976 59.7967 11.1664 61.2577 11.4795C62.7709 12.0013 66.1625 11.1664 68.8236 9.65322C71.4325 8.24441 72.1108 6.83559 70.4933 6.57469ZM127.055 189.773C124.394 191.339 123.872 193.165 125.75 193.791C127.524 194.313 131.02 193.582 133.577 192.226C136.186 190.765 137.021 188.991 135.299 188.312C133.525 187.425 129.82 188.104 127.107 189.773H127.055ZM191.078 127.785C189.408 130.394 188.782 134.151 189.617 135.977C190.347 137.595 192.069 136.864 193.53 134.255C194.887 131.699 195.617 128.203 195.095 126.429C194.469 124.55 192.643 125.072 191.078 127.733V127.785ZM59.014 187.008C57.553 187.634 58.4923 189.304 61.049 190.817C63.6579 192.278 66.9452 193.113 68.5627 192.695C70.2846 192.173 69.6584 190.399 66.9973 188.782C64.3362 187.06 60.7359 186.277 59.0662 187.008H59.014ZM25.7764 161.179C24.8372 162.432 25.9329 165.354 28.1766 167.754C30.5246 170.154 33.2379 171.25 34.3858 170.206C35.5859 168.954 34.6989 165.875 32.2465 163.319C29.7941 160.658 26.9243 159.823 25.8285 161.179H25.7764ZM4.80063 123.35C4.53974 125.072 5.32241 128.359 6.41816 130.864C7.67044 133.368 9.02708 134.255 9.49669 132.69C10.0707 130.916 9.39233 127.42 7.93133 124.759C6.57469 122.202 5.16588 121.628 4.80063 123.402V123.35ZM188.73 66.893C190.399 69.6584 192.173 70.2846 192.695 68.5627C193.113 66.9452 192.278 63.7101 190.817 61.049C189.304 58.4923 187.634 57.553 187.008 59.014C186.277 60.6316 187.008 64.1797 188.782 66.893H188.73ZM163.267 31.4638C165.876 33.9684 168.954 34.9076 170.154 33.6031C171.302 32.5074 170.154 29.7419 167.754 27.4461C165.354 25.2024 162.432 24.1067 161.179 25.0459C159.771 26.0894 160.71 29.0114 163.267 31.4116V31.4638ZM127.472 8.24441C130.133 9.7054 133.681 10.3837 135.403 9.80976C136.969 9.34015 136.082 7.98351 133.577 6.73123C131.125 5.5833 127.785 4.85281 126.063 5.1137C124.341 5.53113 124.915 6.93994 127.42 8.24441H127.472ZM46.6999 113.384C42.4735 108.636 40.9603 102.27 42.0039 96.2173C42.8909 91.6777 41.8473 87.3991 39.1862 84.2684C38.6992 83.7118 38.2122 83.1553 37.7252 82.5987C35.2207 79.5723 31.8812 78.581 28.3853 79.7289C24.0545 81.1899 19.9324 80.0941 17.48 76.3895C14.2449 70.9107 15.8103 61.5186 20.9238 54.7354C26.5069 47.9522 34.2815 45.9694 38.6123 50.7698C41.6908 54.1614 42.4213 59.6924 40.9081 65.1189C39.7602 69.3975 40.5429 73.4153 43.204 76.3373C43.691 76.8939 44.178 77.4678 44.665 78.0592C47.4304 81.1377 51.3438 82.2856 55.6224 81.1899C58.0226 80.6159 60.5272 80.5116 62.9274 80.9812C67.4148 81.8682 71.7978 80.4072 75.1894 76.9634C75.8155 76.3373 76.4416 75.7111 77.0678 75.085C80.5116 71.6934 81.9204 67.3104 81.0855 62.8231C80.042 57.0834 81.9204 50.9786 86.7208 46.6477C91.4169 42.4213 97.887 40.9081 103.835 41.9517C108.323 42.8387 112.653 41.7951 115.732 39.0819C116.289 38.5949 116.863 38.1079 117.454 37.6209C120.428 35.1163 121.472 31.7769 120.324 28.2809C118.863 23.9501 119.958 19.828 123.663 17.3756C129.142 14.1406 138.534 15.7581 145.317 20.8194C151.996 26.3503 153.979 34.1249 149.231 38.4557C145.891 41.5864 140.412 42.3169 134.882 40.7516C130.603 39.6558 126.637 40.4385 123.663 43.0474C123.107 43.5344 122.55 44.0388 121.993 44.5606C118.915 47.3261 117.715 51.2395 118.863 55.5181C120.272 61.2577 118.654 67.6235 113.958 72.2152C109.158 76.9112 102.374 78.6331 96.1129 77.3809C91.3125 76.4416 86.773 77.7983 83.3292 81.2421L81.3986 83.1727C77.9548 86.6164 76.5982 91.156 77.5374 95.9564C78.7897 102.27 77.0678 109.053 72.3717 113.801C65.1711 121.211 53.744 120.845 46.8043 113.28L46.6999 113.384Z" fill-rule="evenodd" clip-rule="evenodd" stroke="currentColor" stroke-width="2" fill="currentColor"></path></g><g fill="currentColor"><path d="M608.19 66.644C600.419 66.644 595.169 69.2067 592.441 74.332C589.713 79.3747 588.35 87.9307 588.35 100C588.35 111.987 589.713 120.543 592.441 125.668C595.169 130.793 600.419 133.356 608.19 133.356C614.224 133.356 618.482 131.703 620.962 128.396C623.524 125.089 624.888 120.295 625.053 114.012L638.694 114.632C638.032 125.296 635.469 133.356 631.005 138.812C626.624 144.268 619.019 146.996 608.19 146.996C594.054 146.996 584.299 142.863 578.926 134.596C576.198 130.463 574.255 125.668 573.098 120.212C572.023 114.673 571.486 107.936 571.486 100C571.486 92.064 572.023 85.368 573.098 79.912C574.255 74.3733 576.198 69.5373 578.926 65.404C584.299 57.1373 594.054 53.004 608.19 53.004C618.358 53.004 625.674 55.2773 630.138 59.824C634.602 64.3707 637.33 71.0667 638.322 79.912L624.682 82.02C624.186 77.06 622.656 73.2573 620.094 70.612C617.531 67.9667 613.563 66.644 608.19 66.644Z"></path><path d="M538.474 54.74H555.338V145.26H538.474V54.74Z"></path><path d="M465.234 67.512V54.74H529.59V67.512H505.906V145.26H489.042V67.512H465.234Z"></path><path d="M439.462 54.74H456.326V145.26H438.47L402.634 83.756V145.26H385.77V54.74H403.626L439.462 116.368V54.74Z"></path><path d="M318.864 54.74H369.952V67.76H335.728V92.808H366.852V105.704H335.728V132.24H372.432V145.26H318.864V54.74Z"></path><path d="M299.848 54.74V122.568C299.848 126.371 299.559 129.512 298.98 131.992C298.484 134.472 297.409 136.993 295.756 139.556C292.449 144.516 285.051 146.996 273.56 146.996C264.219 146.996 257.936 145.012 254.712 141.044C252.563 138.316 251.281 135.547 250.868 132.736C250.289 128.851 250 124.469 250 119.592H264.632C264.632 124.717 265.293 128.313 266.616 130.38C267.939 132.364 270.336 133.356 273.808 133.356C277.363 133.356 279.76 132.571 281 131C282.323 129.429 282.984 126.619 282.984 122.568V54.74H299.848Z"></path></g></svg>